<svg width="132" height="405" viewBox="0 0 132 405" fill="none" xmlns="http://www.w3.org/2000/svg">
<path d="M34.6915 112.167C33.4368 121.54 30.6159 141.252 34.5046 149.794C35.0586 151.01 75.1156 160.281 79.4065 159.339C81.1417 158.958 82.3969 157.705 82.3969 155.829C82.3969 145.868 70.3293 143.427 63.7072 140.31C59.1187 138.15 51.9864 139.078 52.1196 139.078C58.8913 139.078 78.7486 146.941 82.0231 146.222C85.2986 145.502 83.7371 134.005 82.4436 132.489C80.8914 130.671 53.3462 123.006 50.8581 123.006C50.671 123.006 52.2927 123.405 52.6803 123.498C57.0516 124.546 61.0002 126.621 65.3426 127.501C68.6681 128.175 85.599 136.435 88.3309 134.275C89.6192 133.256 88.9821 129.441 89.1251 127.932C90.5833 112.557 77.6509 117.219 67.9124 114.2C67.5532 114.088 55.8576 109.536 55.8576 110.689C55.8576 111.404 73.0109 114.825 74.8276 114.938C80.066 115.267 93.9487 123.612 95.3395 114.446C97.9512 97.2332 69.2018 100.511 59.8291 99.4816C40.3666 98.9312 39.9589 95.514 34.6915 112.167Z" fill="#FFF4D6" stroke="black" stroke-width="8" stroke-linecap="round" stroke-linejoin="round"/>
<path d="M54.0808 96.867C55.0697 89.8233 54.9605 89.1924 52.0717 84.2428C50.7616 81.998 53.6407 79.4319 52.9595 77.0378C51.7369 72.7409 47.9608 68.4234 47.3993 63.9825C47.0908 61.5426 51.8848 60.4923 51.8848 60.0413C51.8848 52.7845 46.0717 49.0767 47.8198 41.0127C49.4523 33.4821 55.858 37.6237 59.3607 33.0071C63.0906 28.091 53.8763 20.9414 56.09 16.5648C58.6172 11.5685 71.8604 9.91909 76.3216 12.4389C77.3866 13.0405 81.1261 17.4715 82.4892 16.8728C84.7604 15.875 82.222 8.64288 85.1524 6.71183C91.4282 2.57638 107.859 17.6106 111.365 22.2303C113.982 25.6796 113.519 30.7226 110.991 33.4997C110.708 33.8101 107.812 34.172 108.001 34.9161C108.623 37.3786 115.365 35.2736 116.831 36.9483C119.303 39.7711 124.332 48.7559 125.148 52.3436C125.664 54.6089 123.949 59.0799 122.018 60.534C121.444 60.9661 117.04 61.4812 117.299 62.5046C117.581 63.6198 119.751 63.1317 120.242 64.1673C122.728 69.4084 118.357 74.2882 115.29 78.331C113.825 80.2609 107.282 81.4691 106.646 83.5654C106.544 83.9006 108.659 85.8182 108.468 87.0755C108.007 90.1093 99.2179 105.752 98.0016 105.981C92.7518 106.969 90.6955 101.891 85.9935 101.116C75.4698 99.3821 64.6712 99.9377 54.0808 96.867Z" fill="#75BA29" stroke="black" stroke-width="12" stroke-linecap="round" stroke-linejoin="round"/>
<path d="M65.8553 160.329C67.7748 172.274 58.0687 169.953 50.4831 168.704C49.1977 168.492 45.7134 169.761 44.8762 169.319C44.3295 169.031 44.3499 165.765 44.3155 165.132C43.5849 151.649 57.9728 153.403 65.8553 160.329Z" fill="#75BA29" stroke="black" stroke-width="12" stroke-linecap="round" stroke-linejoin="round"/>
<path d="M64.9209 173.076C67.9996 171.032 70.8144 172.22 73.7985 173.876C77.0431 175.677 80.5121 177.457 81.6481 181.574C84.5526 192.101 74.1064 235.964 72.9107 249.622C71.4925 265.821 64.4069 285.88 64.4069 300.549C64.4069 313.936 53.362 377.091 46.3246 385.593C44.1221 388.254 34.9843 400.329 30.0179 397.602C23.6538 394.107 22.7504 376.626 21.0936 370.075C14.0999 342.422 7.36093 311.554 6.84271 282.875C6.53525 265.86 8.88824 248.753 9.64613 231.763C10.2796 217.562 8.54391 182.157 18.8509 171.29C19.7996 170.29 22.0776 170.612 23.2896 170.489C29.5216 169.858 39.0739 166.491 44.9696 167.657C51.9633 169.039 57.6775 172.722 64.9209 173.076Z" fill="#F6AB00" stroke="black" stroke-width="12" stroke-linecap="round" stroke-linejoin="round"/>
<path d="M36.279 191.735C31.9804 194.57 23.5794 189.576 20.7665 193.459" stroke="black" stroke-width="12" stroke-linecap="round" stroke-linejoin="round"/>
<path d="M28.3826 225.974C24.9228 229.354 19.4208 228.819 16.1409 227.268" stroke="black" stroke-width="12" stroke-linecap="round" stroke-linejoin="round"/>
<path d="M64.22 241.678C59.4608 241.498 51.5595 239.015 49.5486 236.874" stroke="black" stroke-width="12" stroke-linecap="round" stroke-linejoin="round"/>
<path d="M63.3323 263.354C58.8078 263.274 53.5199 261.473 50.4831 259.536" stroke="black" stroke-width="12" stroke-linecap="round" stroke-linejoin="round"/>
<path d="M60.8559 281.09C57.3897 281.221 53.7282 280.918 50.5765 279.427" stroke="black" stroke-width="12" stroke-linecap="round" stroke-linejoin="round"/>
</svg>
