<?xml version="1.0" encoding="UTF-8" standalone="no"?>
<!-- Created with Inkscape (http://www.inkscape.org/) -->

<svg
   xmlns:dc="http://purl.org/dc/elements/1.1/"
   xmlns:cc="http://creativecommons.org/ns#"
   xmlns:rdf="http://www.w3.org/1999/02/22-rdf-syntax-ns#"
   xmlns:svg="http://www.w3.org/2000/svg"
   xmlns="http://www.w3.org/2000/svg"
   xmlns:sodipodi="http://sodipodi.sourceforge.net/DTD/sodipodi-0.dtd"
   xmlns:inkscape="http://www.inkscape.org/namespaces/inkscape"
   version="1.1"
   id="svg899"
   width="1035"
   height="1136"
   viewBox="0 0 1035 1136"
   sodipodi:docname="carrots12carrotsmix.svg"
   inkscape:version="0.91 r13725">
  <metadata
     id="metadata4580">
    <rdf:RDF>
      <cc:Work
         rdf:about="">
        <dc:format>image/svg+xml</dc:format>
        <dc:type
           rdf:resource="http://purl.org/dc/dcmitype/StillImage" />
        <dc:title></dc:title>
        <cc:license
           rdf:resource="http://creativecommons.org/publicdomain/zero/1.0/" />
        <dc:description>remix by j4p4n</dc:description>
      </cc:Work>
      <cc:License
         rdf:about="http://creativecommons.org/publicdomain/zero/1.0/">
        <cc:permits
           rdf:resource="http://creativecommons.org/ns#Reproduction" />
        <cc:permits
           rdf:resource="http://creativecommons.org/ns#Distribution" />
        <cc:permits
           rdf:resource="http://creativecommons.org/ns#DerivativeWorks" />
      </cc:License>
    </rdf:RDF>
  </metadata>
  <defs
     id="defs903">
    <inkscape:path-effect
       effect="powerstroke"
       id="path-effect1977"
       is_visible="true"
       lpeversion="1"
       offset_points="0.37529819,2.2112698 | 0.4634034,1.7427194 | 0.54638922,2.1889689 | 0.83573134,0.90992161 | 0.99250156,1.2595341 | 1.3361134,0.8690367 | 2.5972214,0.3970018"
       not_jump="true"
       sort_points="true"
       interpolator_type="CentripetalCatmullRom"
       interpolator_beta="0.75"
       start_linecap_type="round"
       linejoin_type="spiro"
       miter_limit="4"
       scale_width="1"
       end_linecap_type="round" />
    <inkscape:path-effect
       effect="simplify"
       id="path-effect1975"
       is_visible="true"
       lpeversion="1"
       steps="1"
       threshold="0.0066968326"
       smooth_angles="0"
       helper_size="0"
       simplify_individual_paths="false"
       simplify_just_coalesce="false"
       step="1" />
    <inkscape:path-effect
       effect="powerstroke"
       id="path-effect1970"
       is_visible="true"
       lpeversion="1"
       offset_points="0.47001882,2.153427 | 3.8132231,3.3876403"
       not_jump="true"
       sort_points="true"
       interpolator_type="CentripetalCatmullRom"
       interpolator_beta="0.75"
       start_linecap_type="round"
       linejoin_type="spiro"
       miter_limit="4"
       scale_width="1"
       end_linecap_type="round" />
    <inkscape:path-effect
       effect="simplify"
       id="path-effect1968"
       is_visible="true"
       lpeversion="1"
       steps="1"
       threshold="0.0066968326"
       smooth_angles="0"
       helper_size="0"
       simplify_individual_paths="false"
       simplify_just_coalesce="false"
       step="1" />
  </defs>
  <sodipodi:namedview
     id="namedview901"
     pagecolor="#f8a5bc"
     bordercolor="#666666"
     borderopacity="1.0"
     inkscape:pageshadow="2"
     inkscape:pageopacity="0"
     inkscape:pagecheckerboard="0"
     showgrid="false"
     inkscape:snap-global="false"
     inkscape:zoom="0.52120562"
     inkscape:cx="968.65064"
     inkscape:cy="607.01072"
     inkscape:window-width="1916"
     inkscape:window-height="1035"
     inkscape:window-x="4"
     inkscape:window-y="1"
     inkscape:window-maximized="1"
     inkscape:current-layer="layer10" />
  <g
     inkscape:groupmode="layer"
     id="layer18"
     inkscape:label="shirtbelowoveralls" />
  <g
     inkscape:groupmode="layer"
     id="layer13"
     inkscape:label="overallsandsleeve2"
     style="display:inline" />
  <g
     inkscape:groupmode="layer"
     id="layer14"
     inkscape:label="carrotsinbowl"
     style="display:inline" />
  <g
     inkscape:groupmode="layer"
     id="layer15"
     inkscape:label="bowl"
     style="display:inline" />
  <g
     inkscape:groupmode="layer"
     id="layer16"
     inkscape:label="handonbowl"
     style="display:inline" />
  <g
     inkscape:groupmode="layer"
     id="layer17"
     inkscape:label="carrottopsbowl"
     style="display:inline" />
  <g
     inkscape:groupmode="layer"
     id="layer10"
     inkscape:label="draw"
     style="display:inline">
    <g
       id="g5140">
      <path
         id="path257301"
         d="m 394.53138,450.32975 c -5.34787,9.92784 -5.47377,99.56345 -4.92264,99.9369 20.3978,13.8219 93.90568,16.48639 120.74177,17.41457 3.5629,0.12323 47.70945,-1.70049 48.06425,-3.06288 1.24419,-4.77742 7.26348,-111.11752 5.94824,-112.8009 -1.27954,-1.63768 -16.78111,-0.64439 -18.8702,-0.7001 -36.9124,-0.98438 -74.77406,-6.84058 -111.92203,-4.98808 -1.50575,0.0751 -59.49514,-7.3198 -39.03939,4.20049 z"
         style="fill:#ffffff;fill-opacity:1;stroke:#000000;stroke-width:12;stroke-linecap:round;stroke-linejoin:round;stroke-miterlimit:4;stroke-dasharray:none;stop-color:#000000" />
      <path
         sodipodi:nodetypes="csssssssssssssssssssssssssssc"
         id="path4424"
         d="m 397.08647,443.42052 c -0.57282,2.29802 -43.21,-9.82221 -43.21,-9.45111 0,43.25322 7.98977,85.94945 -3.14502,130.74054 -9.79569,39.40438 -30.69843,72.71918 -35.27902,113.76353 -4.10414,36.77508 -10.13548,81.7896 -4.92265,118.48914 4.17717,29.40822 10.1188,56.55314 10.1188,86.63528 0,9.71034 2.42025,132.4907 3.14501,132.4907 17.7163,0 116.90615,7.7092 125.25423,-2.9753 6.61955,-8.4722 15.22535,-202.14818 48.13259,-138.9665 13.05979,25.07468 14.67045,72.47875 13.40059,100.11183 -0.63383,13.79272 1.91436,27.17267 1.91436,40.60477 0,1.9274 0.91303,7.2947 -0.27346,5.7758 -5.14849,-6.591 36.79366,-6.1967 41.2956,-4.5506 3.92415,1.4348 72.55014,0.4261 74.93371,-2.6252 3.50693,-4.4895 2.17512,-85.56373 2.73483,-94.16123 4.08172,-62.69782 12.9515,-131.13159 6.837,-193.7481 -3.67131,-37.59671 -20.25438,-71.44113 -29.26245,-108.33788 -5.22962,-21.42039 -4.30021,-42.98048 -6.42676,-64.75769 -2.4089,-24.66879 -5.94654,-49.16215 -8.34116,-73.68378 -0.95943,-9.82481 -2.73483,-19.72293 -2.73483,-29.57848 0,-2.63952 3.45995,-7.87597 0.82042,-7.87597 -4.74623,0 -6.43696,7.41362 -10.80249,9.27612 -5.26767,2.24739 -25.84972,-4.54297 -28.85221,-0.7001 -2.04041,2.61153 2.44096,9.89781 3.14502,12.60153 4.87364,18.71555 0.15028,39.92154 -1.77763,58.98201 l -3.96544,39.20467 c -1.61363,15.9533 -158.25837,-6.09386 -158.8924,-7.17588 -5.03355,-8.59011 1.80496,-36.05465 0.13678,-46.73056 -3.19419,-20.44202 -5.31258,-44.98989 6.01658,-63.35754 z"
         style="display:inline;fill:#046d9d;fill-opacity:1;stroke:#000000;stroke-width:18;stroke-linecap:round;stroke-linejoin:round;stroke-miterlimit:4;stroke-dasharray:none;stop-color:#000000" />
      <path
         id="path4545"
         d="m 593.58243,463.72293 c 21.79719,-18.4899 52.86659,-15.45862 79.30945,-22.22762 26.32148,-6.73793 49.76613,-19.8338 77.39504,-25.72806 7.0896,-1.51247 15.22168,-9.27611 22.15199,-9.27611 3.0447,0 5.69753,22.86943 6.42681,25.90309 2.58121,10.7374 17.94129,41.59981 12.44338,52.15622 -0.12817,0.24611 -10.94315,0.67647 -12.44338,1.22511 -6.30233,2.30474 -10.48164,7.85574 -16.2722,10.32624 -40.04399,17.08448 -85.34081,33.48391 -124.02351,53.55636 -7.00863,3.63677 -33.29164,22.75272 -39.6547,22.75272 -2.30695,0 1.79437,-4.34698 1.91436,-6.65081 0.49161,-9.43933 0.89184,-18.85609 0.27345,-28.35336 -1.6162,-24.82163 -6.37304,-48.70982 -7.52069,-73.68378 z"
         style="display:inline;fill:#ffffff;fill-opacity:1;stroke:#000000;stroke-width:12;stroke-linecap:round;stroke-linejoin:round;stroke-miterlimit:4;stroke-dasharray:none;stop-color:#000000" />
      <path
         id="path6483"
         d="m 494.04187,670.36321 c -2.62872,-1.35613 -3.43564,-1.43076 -5.53798,-0.17499 -2.37337,1.41767 -22.23719,19.27505 -21.87848,20.65243 1.70756,6.5567 23.68823,5.28569 28.64712,6.47577 10.66619,2.55979 19.18661,10.17616 29.53593,12.51401 7.4834,1.69045 15.68902,-1.49351 23.10914,-1.92526 11.00378,-0.64026 24.46828,2.19412 35.0739,3.32541 12.64949,1.3493 25.78343,9.73729 39.79148,7.17587 9.90315,-1.81083 15.20675,-7.88412 22.69891,-14.08919 19.9579,-16.52932 20.24339,-29.13811 10.32386,-52.94381 -1.02954,-2.47078 -4.12151,-13.06757 -7.31558,-13.65162 -27.53178,-5.03428 -91.92225,10.05168 -118.62229,19.25229 -12.54155,4.32171 -22.79083,11.9061 -35.82601,13.38909 z"
         style="display:inline;fill:#f6ab00;stroke:#000000;stroke-width:12;stroke-linecap:round;stroke-linejoin:round;stroke-miterlimit:4;stroke-dasharray:none;stop-color:#000000;fill-opacity:1" />
      <path
         id="path6485"
         d="m 582.71805,603.15522 c -16.66075,-0.88664 -31.64792,11.24654 -46.8336,16.88951 -7.48208,2.78033 -17.77267,-1.52449 -25.02352,2.18777 -11.67677,5.9782 -26.12493,8.10144 -37.12501,14.78926 -10.81603,6.57591 -58.30984,24.64973 -59.27696,35.79177 -1.00886,11.62289 33.15261,11.48492 41.2956,14.26417 10.62462,3.62626 17.43447,-3.50053 24.06632,-11.98889 4.98703,-6.38309 16.33936,-6.21608 23.45097,-8.57602 11.37712,-3.77542 23.2624,-9.1505 34.8688,-11.90145 19.9021,-4.7172 59.71098,-4.03055 75.61747,-15.66435 14.31781,-10.47186 -18.94489,-37.10927 -31.04007,-35.79177 z"
         style="display:inline;fill:#f6ab00;stroke:#000000;stroke-width:12;stroke-linecap:round;stroke-linejoin:round;stroke-miterlimit:4;stroke-dasharray:none;stop-color:#000000;fill-opacity:1" />
      <path
         id="path6487"
         d="m 545.59301,567.10095 c -23.96068,1.73478 -44.14872,16.19511 -66.38749,24.32789 -15.00537,5.4875 -32.2433,17.34323 -47.72238,18.46469 -3.46589,0.2511 -53.60486,30.78557 -63.17408,36.22931 -2.96857,1.68876 -5.49588,4.65488 -8.47789,6.56329 -0.61108,0.39108 -4.43974,0.64583 -4.30734,1.66268 0.23255,1.78607 47.7602,17.77145 53.9441,18.90226 0.61002,0.11155 5.88499,-7.71859 6.56354,-8.40098 6.71349,-6.75155 13.85967,-9.77424 21.26313,-14.87678 10.84908,-7.47731 62.6732,-25.97341 78.28388,-31.15371 14.8545,-4.92937 43.67236,-6.1988 55.17476,-17.23956 4.96902,-4.76959 -23.54919,-31.91932 -25.16023,-34.47909 z"
         style="display:inline;fill:#f6ab00;stroke:#000000;stroke-width:12;stroke-linecap:round;stroke-linejoin:round;stroke-miterlimit:4;stroke-dasharray:none;stop-color:#000000;fill-opacity:1" />
      <path
         id="path5097"
         d="m 309.90036,689.92741 c 0.53919,13.09542 2.77141,25.97959 5.60633,38.6796 24.203,108.42556 226.85737,111.80414 289.47941,38.32963 3.70993,-4.35286 13.73092,-14.78956 14.49457,-20.65248 0.0964,-0.73999 -25.60873,-3.24235 -45.67137,-7.35086 C 517.814,727.46636 464.53925,715.85701 407.1228,713.03021 396.34306,712.49948 295.19368,653.2216 309.90036,689.92741 Z"
         style="display:inline;fill:#ffffff;stroke:#000000;stroke-width:12;stroke-linecap:round;stroke-linejoin:round;stroke-miterlimit:4;stroke-dasharray:none;stop-color:#000000" />
      <path
         sodipodi:nodetypes="cssssssssc"
         id="path5099"
         d="m 617.9765,744.70893 c 15.37417,-1.00949 43.33662,-9.29526 30.21965,-31.67872 -0.37247,-0.63561 -8.08653,-0.0144 -9.29837,0 -17.46006,0.20762 -41.20043,3.73908 -61.79212,-0.98265 -37.27944,-8.54828 -70.76207,-11.32849 -97.32728,-17.08318 -9.61409,-2.08266 -16.81942,-3.09449 -24.42119,-4.94139 -26.64957,-6.47468 -143.87825,-49.58801 -162.95964,-37.37499 -2.34134,1.49857 -2.78973,13.93131 -0.95715,16.27695 0.74681,0.9559 105.84563,42.7403 114.31496,44.8053 11.4611,2.79447 206.98374,32.34991 212.22114,30.97868 z"
         style="display:inline;fill:#ffffff;stroke:#000000;stroke-width:12;stroke-linecap:round;stroke-linejoin:round;stroke-miterlimit:4;stroke-dasharray:none;stop-color:#000000" />
      <path
         id="path4571"
         d="m 348.27013,750.58208 c -13.07799,-7.281 -147.69314,-57.43731 -131.13405,-73.33376 4.80295,-4.61075 37.67934,-37.97584 41.43235,-36.05424 5.16024,2.64211 8.31641,16.87699 14.22099,21.52756 24.09918,18.98105 67.79666,40.12932 87.10367,54.95646"
         style="display:inline;fill:#fff4d6;fill-opacity:1;stroke:#000000;stroke-width:12;stroke-linecap:round;stroke-linejoin:round;stroke-miterlimit:4;stroke-dasharray:none;stop-color:#000000" />
      <path
         id="path4645"
         d="m 359.33173,713.85504 c 3.13143,-8.43509 23.64921,-28.98638 34.86881,-24.67793 5.94574,2.28322 12.93727,3.88564 19.2804,4.90059 5.28431,0.84552 15.12832,0.50561 18.11809,5.86319 11.29579,20.2417 -16.8727,18.83305 -27.48482,18.28968 -6.38409,-0.32688 -17.72182,1.71951 -14.56283,-1.31268 2.18085,-2.09332 8.89216,1.61346 11.34945,1.75022 7.25452,0.40375 12.85913,-2.01273 19.82735,-2.01273 8.74541,0 17.46666,3.38739 26.25416,2.45027 14.99788,-1.59939 35.37384,-7.68834 40.1333,10.58875 5.16686,19.84156 -55.51887,15.40187 -63.9945,15.40187 -8.44214,0 -16.35722,-2.21578 -24.40817,-2.53784 -3.55348,-0.14215 -14.08636,0.71052 -10.66574,-0.26251 10.83199,-3.08126 22.96905,3.15037 34.32182,3.15037 12.44165,0 59.34425,-15.47345 55.99524,10.23872 -2.69026,20.65457 -23.94471,5.50505 -34.52699,4.46305 -12.12691,-1.1941 -23.82286,0.72486 -36.2362,-1.83774 -1.44155,-0.29759 -19.34877,-4.31296 -19.34877,-3.93798 0,2.25719 15.45817,4.73587 17.43441,5.42565 11.43745,3.9921 65.14937,-9.96051 63.65266,11.11386 -0.16872,2.37559 -1.29693,11.33167 -3.76037,12.51395 -3.42266,1.64264 -7.08976,-3.38429 -9.91368,-4.28801 -6.30579,-2.01801 -14.13939,-1.15408 -20.78455,-2.80029 -16.74407,-4.14805 -34.93243,-2.62426 -51.68787,-5.68821 -5.05295,-0.924 17.38513,6.21327 22.56218,6.21327 4.63259,0 61.66991,1.99941 61.66991,2.97533 0,30.12424 -50.00001,12.85759 -65.56701,7.87592 -8.28143,-2.65018 -18.79671,-2.25248 -26.52765,-6.65076 -8.76006,-4.98378 -28.77904,-26.56845 -31.45028,-33.6915"
         style="display:inline;fill:#fff4d6;fill-opacity:1;stroke:#000000;stroke-width:8;stroke-linecap:round;stroke-linejoin:round;stroke-miterlimit:4;stroke-dasharray:none;stop-color:#000000" />
      <path
         sodipodi:nodetypes="csssssssssssssssc"
         id="path6489"
         d="m 563.36927,582.7653 c 3.49974,-24.94694 28.83804,-16.00486 37.60362,-21.61506 0.4605,-0.29474 0.10828,-5.23215 1.16227,-6.21325 12.02418,-11.19264 20.34864,-12.83583 33.43305,-8.05095 0.77724,0.28423 11.45313,-13.3478 13.19542,-14.70175 13.11349,-10.19053 18.59958,8.81302 22.22033,2.27526 l 7.65748,-13.82663 c 11.93557,-21.55131 27.6603,-0.17462 31.58703,17.41457 3.40025,15.23085 -21.5761,12.05117 -30.28803,25.99059 -1.17196,1.87517 -0.57077,7.5601 -2.32455,6.21324 -8.00848,-6.15033 -14.22025,-16.45234 -27.75833,-6.82582 -6.0822,4.32487 -14.58001,25.8192 -16.61394,26.25312 -0.9826,0.20962 -4.52628,-3.17919 -7.04217,-2.80032 -13.19785,1.98744 -12.66247,30.60593 -20.71616,25.81557 l -11.62291,-6.91334 c -6.06083,-3.605 -15.25956,1.24893 -20.85294,-1.13762 -4.1605,-1.77517 -9.2665,-17.81194 -9.64017,-21.87761 z"
         style="display:inline;fill:#75ba29;fill-opacity:1;stroke:#000000;stroke-width:12;stroke-linecap:round;stroke-linejoin:round;stroke-miterlimit:4;stroke-dasharray:none;stop-color:#000000" />
      <path
         id="path6491"
         d="m 760.95917,544.78579 c 4.27744,-2.95598 6.05657,0.31632 7.7942,4.28801 7.08383,16.1915 -8.45477,12.32436 -16.68233,17.58958 -1.68403,1.0777 -1.93644,5.33211 -3.82876,6.30076 -2.50201,1.28075 -4.29321,-4.05169 -7.04212,-4.63805 -4.57678,-0.97626 -9.32212,1.35148 -13.46893,2.6253 -9.12288,2.80238 -13.19046,13.47028 -18.52835,20.30243 -1.46503,1.87515 -3.84388,-3.4082 -6.22169,-3.50041 -6.03622,-0.23408 -12.14935,2.87035 -16.68228,6.7383 -4.32203,3.68799 -4.82045,10.71955 -8.1361,14.96428 -1.70126,2.17797 -8.48495,4.36543 -11.14434,7.08832 -5.67189,5.80735 -11.67697,18.53216 -18.73341,22.40268 -1.48333,0.81362 -3.55857,-1.64152 -5.26449,-1.13764 -17.43603,5.15012 -24.84832,-0.10191 -30.08292,-16.0144 -1.37719,-4.18644 -4.23648,-6.24263 -3.14502,-11.55137 0.98068,-4.76992 6.22725,-9.21462 8.88813,-13.3016 8.23885,-12.65448 13.88593,-5.92439 14.76798,-6.30074 0.58464,-0.24945 9.31338,-22.80954 23.24582,-28.44088 3.8343,-1.54978 12.16264,-3.1548 15.9303,-0.9626 2.04941,1.19244 2.43737,7.81916 3.8971,5.95068 5.53855,-7.08939 12.07243,-18.23674 22.08355,-21.44004 2.73033,-0.87364 10.31714,3.24362 11.55458,2.18776 8.17296,-6.97371 14.31527,-18.96841 27.89505,-14.00167 2.83827,1.03808 1.869,5.82252 3.48687,6.65081 1.86173,0.95313 2.59869,-3.62034 4.58079,-4.28801 1.51358,-0.50985 7.75638,0.22158 7.93098,0.0875 8.61525,-6.6163 7.90705,-0.34412 11.62291,8.48853"
         style="display:inline;fill:#75ba29;fill-opacity:1;stroke:#000000;stroke-width:12;stroke-linecap:round;stroke-linejoin:round;stroke-miterlimit:4;stroke-dasharray:none;stop-color:#000000" />
      <path
         id="path6493"
         d="m 802.25476,580.40252 c -3.48987,6.50245 4.47766,18.932 -1.64089,24.15288 -2.66574,2.27463 -10.02559,-2.35711 -10.59737,3.50041 -0.55273,5.66238 3.40721,22.0014 -1.43578,26.34064 -2.38674,2.13848 -16.91934,-1.85379 -17.16091,-1.31265 -4.91462,11.00891 -3.44702,11.7966 -15.38333,16.88951 -4.77148,2.03586 -12.60654,4.07837 -17.77622,2.97535 -1.06343,-0.22689 -8.1645,-6.92672 -8.7514,-6.30076 -1.18224,1.26094 -1.04506,5.11296 -2.18786,6.73831 -3.2567,4.63178 -15.02176,8.3849 -20.37432,9.36363 -3.05544,0.5587 -6.41712,0.10445 -9.02486,-1.6627 -1.02879,-0.69716 -2.00911,-3.95791 -2.46132,-2.80035 -7.09126,18.15217 0.32428,11.05263 -15.99864,12.95155 -3.24686,0.37773 -6.0639,2.63463 -9.4351,2.27524 -7.52899,-0.80265 -18.07843,-31.39415 -16.47721,-37.54194 5.50555,-21.13837 26.93919,-26.02146 28.51036,-28.70342 4.24038,-7.23826 2.44,-9.36506 9.64022,-16.27693 3.22077,-3.09179 9.56635,-5.46618 14.01589,-4.20051 2.31601,0.65878 5.0765,7.0013 5.538,4.63806 6.70568,-34.33866 32.6965,-16.55496 36.44129,-18.55221 5.99912,-3.1996 12.84855,-15.43218 21.19479,-13.65163 1.56862,0.33465 13.27882,21.97153 13.87916,22.22764 5.82526,2.48513 11.44142,-14.28791 19.4855,-1.05012 z"
         style="display:inline;fill:#75ba29;fill-opacity:1;stroke:#000000;stroke-width:12;stroke-linecap:round;stroke-linejoin:round;stroke-miterlimit:4;stroke-dasharray:none;stop-color:#000000" />
      <path
         id="path3419"
         d="m 329.13631,239.00136 c -48.03316,-36.11934 -54.79961,50.54463 1.09391,35.09164"
         style="fill:#fff4d6;stroke:#000000;stroke-width:18;stroke-linecap:round;stroke-linejoin:round;stroke-miterlimit:4;stroke-dasharray:none;stop-color:#000000;fill-opacity:1" />
      <path
         id="path3421"
         d="m 616.15442,250.3777 c 46.32029,-4.28452 34.46532,40.092 4.64919,52.59378"
         style="fill:#fff4d6;stroke:#000000;stroke-width:18;stroke-linecap:round;stroke-linejoin:round;stroke-miterlimit:4;stroke-dasharray:none;stop-color:#000000;fill-opacity:1" />
      <path
         id="path3417"
         d="m 337.95605,146.85288 c -4.79789,74.67847 -4.06443,150.56609 -11.34945,225.1643 -9.23491,94.5649 159.55715,78.78025 226.85232,81.47218 6.44087,0.25765 47.57012,-0.0752 50.93581,-7.61342 25.1279,-56.27938 11.75969,-187.5809 11.75969,-251.67991 0,-5.60832 -0.92494,-50.39184 -6.29008,-52.68128 -14.24715,-6.07961 -64.11977,15.39372 -80.33499,18.28968 -27.95856,4.99327 -57.86268,-0.43839 -86.14644,-1.48766 -23.80672,-0.88319 -92.49221,-25.82543 -105.42686,-11.46389 z"
         style="fill:#fff4d6;fill-opacity:1;stroke:#000000;stroke-width:18;stroke-linecap:round;stroke-linejoin:round;stroke-miterlimit:4;stroke-dasharray:none;stop-color:#000000" />
      <path
         id="path3423"
         d="m 613.76144,140.72716 c 11.85349,4.23168 77.13499,-32.61462 68.43862,-39.81722 -17.40345,-14.414075 -209.93895,10.2234 -230.68111,14.96427 -7.65157,1.74886 -124.88611,13.17709 -116.02422,30.19108 1.9741,3.79009 34.25368,-0.10094 40.27006,0.78759 23.87227,3.52561 44.76432,14.16725 69.25901,15.83939 19.14271,1.30679 37.58197,-0.25447 56.61054,-2.53779 38.30035,-4.59582 74.13504,-17.88354 112.1271,-19.42732 z"
         style="fill:#046d9d;stroke:#000000;stroke-width:18;stroke-linecap:round;stroke-linejoin:round;stroke-miterlimit:4;stroke-dasharray:none;stop-color:#000000;fill-opacity:1" />
      <path
         id="path3425"
         d="m 614.92376,85.070552 c -9.92561,-52.470786 1.48152,-64.259318 -68.16511,-71.846054 -24.81006,-2.702606 -57.41038,-1.521089 -82.59119,2.100245 -22.17617,3.189227 -48.55345,-0.02117 -69.60087,5.075602 -17.45065,4.225788 -44.73583,-1.362866 -59.14022,14.00167 -8.5193,9.087165 -12.79334,96.900385 2.2562,102.037135 12.6004,4.3008 157.42607,-34.73737 192.18863,-33.42897 18.89732,0.71127 93.98719,7.32586 85.05256,-17.939628 z"
         style="fill:#046d9d;stroke:#000000;stroke-width:18;stroke-linecap:round;stroke-linejoin:round;stroke-miterlimit:4;stroke-dasharray:none;stop-color:#000000;fill-opacity:1" />
      <path
         id="path5122"
         d="M 402.33008 176.88281 L 389.17773 188.34766 L 392.55078 217.35156 L 411.09961 234.55078 L 418.85547 232.86328 L 431.33398 216.67578 L 432.68164 199.47656 L 430.6582 190.37109 L 420.20508 177.21875 L 402.33008 176.88281 z M 548.69336 186.66211 L 535.54102 198.12891 L 538.91406 227.13086 L 557.46289 244.33008 L 565.21875 242.64453 L 577.69727 226.45703 L 579.04492 209.25781 L 577.02148 200.15234 L 566.56836 187 L 548.69336 186.66211 z "
         style="fill:#ffffff;fill-rule:evenodd;stroke:none;stroke-width:1px;stroke-linecap:butt;stroke-linejoin:miter;stroke-opacity:1;fill-opacity:1" />
      <path
         id="path3429"
         d="m 410.38521,175.38129 c -56.52729,13.918 20.37432,110.92554 20.37432,18.90223 0,-13.48063 -9.56921,-16.29496 -20.37432,-18.90223 z"
         style="fill:none;stroke:#000000;stroke-width:12;stroke-linecap:round;stroke-linejoin:round;stroke-miterlimit:4;stroke-dasharray:none;stop-color:#000000" />
      <path
         id="path3433"
         d="m 570.30311,236.11349 c 40.47303,-69.72502 -76.64436,-57.69769 -24.20305,2.71283 7.29772,8.40672 17.77125,1.29213 24.20305,-2.71283 z"
         style="fill:none;stroke:#000000;stroke-width:12;stroke-linecap:round;stroke-linejoin:round;stroke-miterlimit:4;stroke-dasharray:none;stop-color:#000000" />
      <path
         sodipodi:nodetypes="csc"
         id="path3435"
         d="m 481.7637,218.43639 c 7.78112,20.09169 28.40371,76.3101 34.39021,119.88929 1.35575,9.86931 -19.91631,-0.80293 -29.87777,-0.7001"
         style="fill:none;stroke:#000000;stroke-width:12;stroke-linecap:round;stroke-linejoin:round;stroke-miterlimit:4;stroke-dasharray:none;stop-color:#000000" />
      <path
         id="path3437"
         d="m 396.71117,381.73084 c -1.7181,30.9248 17.62824,33.00016 37.46688,37.54196"
         style="fill:none;stroke:#000000;stroke-width:12;stroke-linecap:round;stroke-linejoin:round;stroke-miterlimit:4;stroke-dasharray:none;stop-color:#000000" />
      <path
         id="path4539"
         d="m 334.86959,1017.3138 c -9.22164,13.0122 -5.46966,29.6211 -5.46966,44.8053 0,14.4349 1.25799,35.0735 6.56354,48.6558 2.5658,6.5685 145.31028,21.6416 151.7819,5.0756 14.01213,-35.8682 -40.0896,-9.3026 -41.15887,-25.7281 -1.27405,-19.5711 -1.6409,-39.1491 -1.6409,-58.807 0,-1.821 2.49275,-17.6053 1.91436,-17.852 -21.23969,-9.0625 -72.14992,27.1305 -111.99037,3.8504 z"
         style="fill:#000000;stroke:#000000;stroke-width:18;stroke-linecap:round;stroke-linejoin:round;stroke-miterlimit:4;stroke-dasharray:none;stop-color:#000000;fill-opacity:1" />
      <path
         id="path4541"
         d="m 513.99953,1010.663 c -4.6263,15.172 2.25971,29.5359 3.55525,44.4553 1.28665,14.8169 -7.34073,38.7337 2.73478,51.6311 4.72236,6.045 145.07362,11.9111 154.79013,-0.5251 32.71012,-41.8656 -50.42041,-16.9292 -56.2003,-24.3278 -4.49662,-5.756 5.92384,-65.1077 2.18786,-65.1077 -14.22708,0 -116.48989,30.0541 -107.06772,-6.1258 z"
         style="fill:#000000;stroke:#000000;stroke-width:18;stroke-linecap:round;stroke-linejoin:round;stroke-miterlimit:4;stroke-dasharray:none;stop-color:#000000;fill-opacity:1" />
      <path
         id="path4547"
         d="m 771.75521,414.89212 c -2.44882,-22.6823 6.55221,17.23664 8.34112,24.67793 2.62641,10.92501 6.93091,38.56546 14.90471,46.73057 1.36282,1.39552 7.28974,-3.11008 9.02491,-3.85042 25.09014,-10.7052 23.35672,-18.65281 15.99864,-46.9056 -2.63868,-10.13172 -7.19272,-33.51609 -14.49457,-41.30491 -10.62984,-11.33876 -36.26906,8.94698 -33.77481,20.65243 z"
         style="fill:#ffffff;stroke:#000000;stroke-width:12;stroke-linecap:round;stroke-linejoin:round;stroke-miterlimit:4;stroke-dasharray:none;stop-color:#000000;fill-opacity:1" />
      <path
         id="path4551"
         d="m 800.4707,461.62268 c 0.99149,-7.36517 7.728,-13.23255 13.81077,-17.50206"
         style="fill:none;stroke:#000000;stroke-width:12;stroke-linecap:round;stroke-linejoin:round;stroke-miterlimit:4;stroke-dasharray:none;stop-color:#000000" />
      <path
         id="path4553"
         d="m 351.00496,444.47064 c -22.73034,17.94048 -49.1869,34.60373 -67.2763,57.75691 -16.39942,20.99011 -102.16825,94.36362 -98.31635,119.01409 1.54641,9.89635 73.02789,4.54426 85.326,-3.3254 6.79085,-4.34552 12.36728,-15.94333 17.77626,-21.87754 16.24227,-17.81945 23.22785,-35.28982 36.64641,-4.37553 0.49852,1.1485 8.08737,15.10163 9.02486,14.70172 23.0662,-9.83953 24.67103,-141.79376 16.81912,-161.89425 z"
         style="fill:#ffffff;stroke:#000000;stroke-width:12;stroke-linecap:round;stroke-linejoin:round;stroke-miterlimit:4;stroke-dasharray:none;stop-color:#000000;fill-opacity:1" />
      <path
         id="path4555"
         d="m 182.95097,622.99191 c -7.57879,10.64558 -3.85686,22.55585 -6.01658,34.30408 -10.39287,56.53414 88.10637,-15.13922 90.24869,-19.25228 1.5466,-2.96933 -1.80137,-19.24145 -4.3757,-21.87764 -2.20718,-2.26022 -62.71083,22.1366 -79.85641,6.82584 z"
         style="fill:#ffffff;stroke:#000000;stroke-width:12;stroke-linecap:round;stroke-linejoin:round;stroke-miterlimit:4;stroke-dasharray:none;stop-color:#000000;fill-opacity:1" />
      <path
         id="path4557"
         d="m 228.34878,636.1185 c -1.29286,4.24336 -1.31498,8.95882 -0.41021,13.30152"
         style="fill:none;stroke:#000000;stroke-width:12;stroke-linecap:round;stroke-linejoin:round;stroke-miterlimit:4;stroke-dasharray:none;stop-color:#000000" />
      <path
         sodipodi:nodetypes="cc"
         id="path4563"
         d="m 204.853,627.25284 c -3.69917,12.10659 -6.75981,32.88278 -6.72384,33.19352"
         style="fill:none;stroke:#000000;stroke-width:12;stroke-linecap:round;stroke-linejoin:round;stroke-miterlimit:4;stroke-dasharray:none;stop-color:#000000" />
      <path
         id="path4565"
         d="m 829.18618,461.09762 c 10.78401,-7.04964 22.27106,-12.70897 34.59527,-15.57685 28.28922,-6.58299 48.39449,-3.49738 37.33016,-34.65411 -1.12786,-3.17599 -5.08536,-14.53215 -8.34122,-15.22683 -4.60525,-0.98258 -17.28485,6.45501 -22.15189,7.70094 -19.09911,4.88922 -62.21002,2.32853 -55.10642,32.20383 2.48829,10.4649 4.87421,19.00458 13.6741,25.55302 z"
         style="fill:#fff4d6;stroke:#000000;stroke-width:12;stroke-linecap:round;stroke-linejoin:round;stroke-miterlimit:4;stroke-dasharray:none;stop-color:#000000;fill-opacity:1" />
      <path
         sodipodi:nodetypes="csssssssssssssssscc"
         id="path4610"
         d="m 980.50069,375.23078 c 1.836,13.31941 5.96366,41.33097 0.27346,53.46887 -0.81058,1.72907 -59.4249,14.90323 -65.70374,13.5641 -2.53906,-0.54152 -4.37572,-2.32213 -4.37572,-4.98808 0,-14.15491 17.65812,-17.62329 27.34809,-22.05263 6.71427,-3.06913 17.15085,-1.7502 16.95584,-1.7502 -9.90881,0 -38.96552,11.1734 -43.75697,10.15121 -4.79294,-1.02251 -2.50808,-17.36138 -0.6153,-19.51482 2.27123,-2.58402 42.57738,-13.47661 46.21824,-13.47661 0.2737,0 -2.09929,0.5681 -2.66644,0.70008 -6.39639,1.48845 -12.1743,4.43704 -18.5283,5.68818 -4.86617,0.95817 -29.64074,12.69607 -33.63818,9.62614 -1.88519,-1.44778 -0.9529,-6.86951 -1.16227,-9.01356 -2.13364,-21.84955 16.78999,-15.22329 31.04007,-19.51484 0.52566,-0.15831 17.63949,-6.6275 17.63949,-4.98809 0,1.01511 -25.10003,5.87625 -27.75828,6.03823 -7.66524,0.46711 -27.97938,12.32555 -30.01453,-0.70009 -3.82169,-24.46008 38.24651,-19.80252 51.96136,-21.26504 28.47891,-0.78211 29.07563,-5.63803 36.78318,18.02715 z"
         style="fill:#fff4d6;fill-opacity:1;stroke:#000000;stroke-width:8;stroke-linecap:round;stroke-linejoin:round;stroke-miterlimit:4;stroke-dasharray:none;stop-color:#000000" />
      <path
         id="path4922"
         d="m 809.57693,414.1329 c -8.06744,6.14843 -12.58982,19.36712 -18.52832,24.15287"
         style="fill:none;stroke:#000000;stroke-width:12;stroke-linecap:round;stroke-linejoin:round;stroke-miterlimit:4;stroke-dasharray:none;stop-color:#000000" />
      <path
         id="path4926"
         d="m 952.12882,353.48823 c -1.44704,-10.00945 -1.28712,-10.90606 2.9399,-17.93965 1.91712,-3.19001 -2.29582,-6.83653 -1.29903,-10.23873 1.78898,-6.10603 7.31437,-12.24141 8.13605,-18.55221 0.45145,-3.46726 -6.56354,-4.95984 -6.56354,-5.60066 0,-10.31232 8.50626,-15.5813 5.94821,-27.04071 -2.38882,-10.70131 -11.76197,-4.8159 -16.88743,-11.37636 -5.45792,-6.98601 8.02516,-17.14595 4.78592,-23.36529 -3.69799,-7.10011 -23.07648,-9.44394 -29.6043,-5.86319 -1.55849,0.85489 -7.03041,7.15168 -9.02488,6.30076 -3.32342,-1.4179 0.39095,-11.69509 -3.8971,-14.43921 -9.18312,-5.87669 -33.22643,15.48768 -38.35568,22.0526 -3.82964,4.90156 -3.15277,12.06796 0.54697,16.01442 0.41354,0.44112 4.65106,0.9554 4.37568,2.01273 -0.91143,3.49938 -10.77671,0.50809 -12.92197,2.88784 -3.6161,4.01137 -10.97488,16.77924 -12.1699,21.87761 -0.75453,3.21911 1.75553,9.57262 4.58082,11.6389 0.83957,0.61401 7.28408,1.34609 6.90539,2.80032 -0.41268,1.58476 -3.58878,0.89123 -4.30734,2.36277 -3.63684,7.44795 2.75872,14.38247 7.24726,20.12742 2.14268,2.74245 11.71739,4.45938 12.64848,7.43838 0.14886,0.47627 -2.94561,3.2013 -2.66644,4.98806 0.6736,4.31115 13.53501,26.54039 15.31492,26.8657 7.6818,1.404 10.69084,-5.81237 17.57115,-6.91332 15.39894,-2.46405 31.20027,-1.67457 46.69686,-6.03818 z"
         style="fill:#75ba29;stroke:#000000;stroke-width:12;stroke-linecap:round;stroke-linejoin:round;stroke-miterlimit:4;stroke-dasharray:none;stop-color:#000000;fill-opacity:1" />
      <path
         id="path4928"
         d="m 934.89952,443.67041 c -2.80878,16.97503 11.39398,13.67698 22.49379,11.90143 1.88089,-0.30087 6.9793,1.50242 8.20444,0.87511 0.7999,-0.40958 0.77018,-5.05039 0.82042,-5.95071 1.06913,-19.15944 -19.9844,-16.66795 -31.51865,-6.82583 z"
         style="fill:#75ba29;stroke:#000000;stroke-width:12;stroke-linecap:round;stroke-linejoin:round;stroke-miterlimit:4;stroke-dasharray:none;stop-color:#000000;fill-opacity:1" />
      <path
         id="path4930"
         d="m 936.26691,461.78508 c -4.50508,-2.90492 -8.62381,-1.21561 -12.99033,1.13764 -4.74777,2.55873 -9.824,5.08816 -11.4862,10.93877 -4.25008,14.95941 11.03559,77.29103 12.78523,96.69902 2.07524,23.01969 12.44339,51.52537 12.44339,72.3711 0,19.02349 16.16171,108.76913 26.45927,120.85189 3.22284,3.78155 16.59395,20.94012 23.86121,17.06452 9.31244,-4.9663 10.63426,-29.8078 13.05872,-39.11715 10.2337,-39.29553 20.0946,-83.16136 20.8529,-123.91474 0.4499,-24.18041 -2.9932,-48.49031 -4.1022,-72.63366 -0.927,-20.18071 1.6129,-70.49252 -13.469,-85.93518 -1.3883,-1.42154 -4.72163,-0.96311 -6.49511,-1.13764 -9.11908,-0.89742 -23.09668,-5.68186 -31.7238,-4.0255 -10.23362,1.96479 -18.59512,7.19844 -29.19408,7.70093 z"
         style="fill:#f6ab00;stroke:#000000;stroke-width:12;stroke-linecap:round;stroke-linejoin:round;stroke-miterlimit:4;stroke-dasharray:none;stop-color:#000000;fill-opacity:1" />
      <path
         id="path4932"
         d="m 978.17786,488.30071 c 6.2899,4.02889 18.58297,-3.06881 22.69894,2.45032"
         style="fill:none;stroke:#000000;stroke-width:12;stroke-linecap:round;stroke-linejoin:round;stroke-miterlimit:4;stroke-dasharray:none;stop-color:#000000" />
      <path
         id="path4934"
         d="m 985.76694,513.85378 c 5.39818,-1.67682 13.65753,-1.80658 17.36606,-1.92526"
         style="fill:none;stroke:#000000;stroke-width:12;stroke-linecap:round;stroke-linejoin:round;stroke-miterlimit:4;stroke-dasharray:none;stop-color:#000000" />
      <path
         id="path4936"
         d="m 989.73243,536.95653 c 5.06255,4.80291 13.11347,4.04295 17.91297,1.83769"
         style="fill:none;stroke:#000000;stroke-width:12;stroke-linecap:round;stroke-linejoin:round;stroke-miterlimit:4;stroke-dasharray:none;stop-color:#000000" />
      <path
         id="path4938"
         d="m 937.29248,559.27166 c 6.96394,-0.25503 18.5257,-3.78382 21.46824,-6.8258"
         style="fill:none;stroke:#000000;stroke-width:12;stroke-linecap:round;stroke-linejoin:round;stroke-miterlimit:4;stroke-dasharray:none;stop-color:#000000" />
      <path
         id="path4940"
         d="m 938.5915,590.07535 c 6.62049,-0.11363 14.35807,-2.67356 18.80181,-5.42565"
         style="fill:none;stroke:#000000;stroke-width:12;stroke-linecap:round;stroke-linejoin:round;stroke-miterlimit:4;stroke-dasharray:none;stop-color:#000000" />
      <path
         id="path4942"
         d="m 942.21512,615.27834 c 5.07189,0.18619 10.42968,-0.2438 15.04146,-2.3628"
         style="fill:none;stroke:#000000;stroke-width:12;stroke-linecap:round;stroke-linejoin:round;stroke-miterlimit:4;stroke-dasharray:none;stop-color:#000000" />
      <path
         id="path4944"
         d="m 58.945142,1018.642 c -2.233423,-1.2252 -4.483471,-2.4205 -6.700269,-3.6755 -13.859289,-7.8461 -15.582167,-49.26065 -4.922643,-57.05668 1.479464,-1.08203 4.460545,-4.22403 4.922643,-2.45032 0.503583,1.93296 -10.514165,2.71159 -11.622937,2.8003 -19.541864,1.56343 -21.408545,-35.35122 -26.801101,-47.43066 -22.0809454,-49.4618 14.72644,-32.62101 18.323206,-41.82998 3.919261,-10.03467 -8.593485,-28.32306 17.502781,-35.00412 6.098418,-1.5613 16.390169,14.07656 20.100808,13.12658 7.37514,-1.88816 27.50097,-27.11739 38.15058,-20.30241 7.83404,5.01322 10.80249,24.2986 10.80249,32.72885 0,3.55045 -10.12277,6.4111 -6.97373,8.051 7.9309,4.13012 22.44797,-21.11322 32.54419,-9.62614 10.8851,12.38463 -3.07874,19.0905 -1.23066,26.77818 1.51556,6.30444 9.48005,13.18674 6.70027,20.30241 -1.0656,2.72771 -9.14597,7.35571 -8.88813,10.32619 0.72705,8.37627 6.87737,14.43163 6.29008,23.45278 -0.57629,8.85212 -14.6312,10.79255 -14.6312,14.70181 0,1.43703 5.20227,6.31647 6.01658,8.40099 4.367,11.17899 -7.9281,9.79777 -12.0332,15.05179 -1.60799,2.05803 3.75936,13.9826 2.05113,18.90221 -9.09163,26.18342 -46.353811,22.75272 -69.600888,22.75272 z"
         style="fill:#75ba29;stroke:#000000;stroke-width:12;stroke-linecap:round;stroke-linejoin:round;stroke-miterlimit:4;stroke-dasharray:none;stop-color:#000000;fill-opacity:1" />
      <path
         id="path4946"
         d="m 116.78634,872.32457 c 33.37736,-0.80064 -8.47789,22.0204 -8.47789,25.20304 0,6.22036 12.6945,6.93233 13.26381,13.12659 0.78687,8.56153 -0.78066,17.48912 -6.70027,23.80275 -1.38269,1.47472 -13.5223,5.52214 -13.26381,7.17592 2.60543,16.66912 17.66062,25.53311 -3.828764,39.72973"
         style="fill:none;stroke:#000000;stroke-width:12;stroke-linecap:round;stroke-linejoin:round;stroke-miterlimit:4;stroke-dasharray:none;stop-color:#000000" />
      <path
         id="path4948"
         d="m 48.552891,1022.6675 c -16.302291,1.3529 -10.84211,78.1214 -9.571827,78.9344 12.555269,8.0357 36.798259,-4.803 50.320457,3.8504 3.043584,1.9477 23.528229,17.1207 26.117429,15.2269 8.8522,-6.475 6.13492,-31.5333 5.33288,-40.4299 -5.39286,-59.8206 3.79848,-81.89958 -72.198939,-57.5818 z"
         style="fill:#f6ab00;stroke:#000000;stroke-width:12;stroke-linecap:round;stroke-linejoin:round;stroke-miterlimit:4;stroke-dasharray:none;stop-color:#000000;fill-opacity:1" />
      <path
         id="path4950"
         d="m 45.818087,1047.6955 c 7.686935,2.4819 15.444459,1.5235 22.97239,-0.3501"
         style="fill:none;stroke:#000000;stroke-width:12;stroke-linecap:round;stroke-linejoin:round;stroke-miterlimit:4;stroke-dasharray:none;stop-color:#000000" />
      <path
         id="path4952"
         d="m 53.749041,1068.1729 c 6.588536,-0.7708 13.215242,0.1751 19.964078,0.1751"
         style="fill:none;stroke:#000000;stroke-width:12;stroke-linecap:round;stroke-linejoin:round;stroke-miterlimit:4;stroke-dasharray:none;stop-color:#000000" />
      <path
         id="path4954"
         d="m 215.23944,1030.8934 c -13.62482,-8.9538 -25.70719,-18.5703 -25.70719,-37.10437 0,-5.91361 14.30613,-18.83701 10.66576,-14.1767 -3.99888,5.11925 -19.37962,-3.54362 -21.74176,-7.70094 -6.94625,-12.22524 -11.32004,-32.45467 -6.01657,-46.03046 3.68451,-9.4316 15.76734,-8.87058 11.62296,-8.57602 -22.40765,1.59262 -14.98811,-27.78362 -8.61467,-39.20462 4.36754,-7.82649 17.27316,-6.70674 19.41716,-9.4511 1.39345,-1.78365 -2.0325,-11.42163 -0.6837,-14.70182 4.06867,-9.89476 23.08239,-23.19331 34.59533,-14.35165 13.92709,10.69568 -6.25478,19.2164 10.11879,25.20295 16.39598,5.99474 35.11532,-6.21201 46.21824,11.55145 2.49753,3.99578 -6.70686,8.99875 -4.78591,13.30152 3.57592,8.0098 14.38782,11.20014 15.99863,20.47745 1.78736,10.29406 -10.88608,12.29024 -13.2638,18.3772 -1.33206,3.41003 9.05054,13.82013 8.20438,19.77729 -1.31532,9.26021 -12.2688,14.63616 -13.40053,21.87764 -0.804,5.14443 3.54608,11.94864 2.32459,18.20216 -0.56153,2.8748 -4.69575,3.89024 -6.70027,5.60069 -2.41587,2.06146 2.15515,8.89733 -1.50417,11.02633 -1.03226,0.6006 -9.40881,-0.4039 -9.4351,-0.3501 -2.37479,4.8636 2.40039,11.3454 -0.54696,16.627 -5.00817,8.9744 -37.7317,12.0462 -46.76521,9.6261 z"
         style="fill:#75ba29;stroke:#000000;stroke-width:12;stroke-linecap:round;stroke-linejoin:round;stroke-miterlimit:4;stroke-dasharray:none;stop-color:#000000;fill-opacity:1" />
      <path
         id="path4956"
         d="m 253.25329,872.32457 c 35.21241,-1.81574 -2.37813,29.89 -5.46961,37.80452 -0.17678,0.45257 12.46195,22.15079 13.81078,25.02801 4.08852,8.72131 -18.24399,12.78282 -20.78455,18.20216 -2.91512,6.2183 12.03406,9.2833 12.85357,16.10191 0.46002,3.82759 -3.06116,16.03084 -6.97373,17.85209 -3.30713,1.53943 -10.66576,-1.19755 -10.66576,2.45032 0,13.24012 21.73268,20.34932 -6.56354,29.40342"
         style="fill:none;stroke:#000000;stroke-width:12;stroke-linecap:round;stroke-linejoin:round;stroke-miterlimit:4;stroke-dasharray:none;stop-color:#000000" />
      <path
         id="path4958"
         d="m 214.00878,1034.5689 c -11.75555,-2.2447 -33.25826,-1.3437 -34.04836,13.8266 -0.45134,8.666 4.34943,43.371 10.11879,50.7561 3.96343,5.0734 15.25926,1.277 20.64783,4.7255 1.56022,0.9985 6.77863,8.576 7.38396,8.576 1.94759,0 5.40861,-10.6678 7.65747,-11.9013 6.56664,-3.6017 15.11712,-2.8488 21.87844,-7.1759 5.75867,-3.6855 17.05433,5.8988 20.51109,0 3.21503,-5.4863 -0.92125,-20.527 -1.36744,-26.4281 -1.87206,-24.7593 0.16418,-45.8702 -27.89501,-39.0297 -9.89909,2.4132 -15.83545,0.3066 -24.88677,6.6508 z"
         style="fill:#f6ab00;stroke:#000000;stroke-width:12;stroke-linecap:round;stroke-linejoin:round;stroke-miterlimit:4;stroke-dasharray:none;stop-color:#000000;fill-opacity:1" />
      <path
         id="path4960"
         d="m 217.83749,1059.2468 c 4.53726,-1.0496 18.23371,-1.8595 19.96413,-2.1002"
         style="fill:none;stroke:#000000;stroke-width:12;stroke-linecap:round;stroke-linejoin:round;stroke-miterlimit:4;stroke-dasharray:none;stop-color:#000000" />
      <path
         id="path4962"
         d="m 227.13586,1071.8483 c 4.46487,-0.2119 8.93307,-0.175 13.40054,-0.175"
         style="fill:none;stroke:#000000;stroke-width:12;stroke-linecap:round;stroke-linejoin:round;stroke-miterlimit:4;stroke-dasharray:none;stop-color:#000000" />
      <path
         id="path4964"
         d="m 300.83892,1117.1787 c -14.63204,-24.1432 -46.15453,-36.4184 -71.24174,-17.152 -4.42994,3.4021 -14.0403,19.0591 -17.36603,20.4774 -5.74727,2.4511 -0.69386,-12.8954 -3.69198,-18.3772 -3.89325,-7.1185 -17.4609,-11.9293 -25.16023,-9.2761 -17.11828,5.8991 -35.88782,3.3505 -53.87576,10.6763 -2.06467,0.8409 -14.34082,18.8366 -16.13536,18.3772 -3.91156,-1.0014 -13.13787,-13.6229 -18.049725,-16.452 -18.831077,-10.846 -41.778503,-10.2372 -60.575979,0.7001 -4.731402,2.7529 -27.7676184,19.2953 -18.186477,9.8012"
         style="fill:none;stroke:#000000;stroke-width:12;stroke-linecap:round;stroke-linejoin:round;stroke-miterlimit:4;stroke-dasharray:none;stop-color:#000000" />
      <ellipse
         ry="8.5787172"
         rx="7.9947748"
         cy="202.15155"
         cx="417.20523"
         id="ellipse97614"
         style="fill:#000000;fill-opacity:1;stroke:#000000;stroke-width:12;stroke-linecap:round;stroke-linejoin:round;stroke-miterlimit:4;stroke-dasharray:none;stop-color:#000000" />
      <ellipse
         ry="8.5787172"
         rx="7.9947748"
         cy="209.37686"
         cx="562.47003"
         id="path97532"
         style="fill:#000000;fill-opacity:1;stroke:#000000;stroke-width:12;stroke-linecap:round;stroke-linejoin:round;stroke-miterlimit:4;stroke-dasharray:none;stop-color:#000000" />
    </g>
  </g>
  <g
     inkscape:groupmode="layer"
     id="layer11"
     inkscape:label="draw 1"
     style="display:inline" />
</svg>
